<svg width="1755.086426" height="1133.726685" viewBox="0 0 1755.09 1133.73" fill="none" xmlns="http://www.w3.org/2000/svg" xmlns:xlink="http://www.w3.org/1999/xlink">
	<desc>
			Created with Pixso.
	</desc>
	<defs/>
	<path id="Path" d="M65.1 0.42C16.61 36.7 -6.3 100.15 1.49 159.46C9.56 220.91 52.22 269.74 110.92 288.51C167.58 306.59 235.03 296.48 277.66 252.87C317.53 212.08 335.26 139.72 287.58 97.34C247.31 61.56 176.81 62.16 140.07 102.65C103.34 143.15 106.21 208.08 136.23 251.53C174.11 306.34 247.08 312.73 307.66 305.16C381.09 296.12 457.15 264.89 531.11 287.61C589.41 305.52 636.04 353.68 657.05 410.44C667.76 438.81 671.24 469.39 667.16 499.43C662.43 532.16 644.51 566.53 615.17 583.54C582.54 602.48 545.99 587.5 528.44 555.71C509.18 520.76 516.6 479.09 524.84 442.09C540.59 371.43 567.58 295.9 626.25 249.47C678.24 208.43 756.01 192.31 812.58 233.87C876.71 280.98 886.24 367.91 874.51 440.77C868.14 480.3 856.73 518.93 845.68 557.35C834.44 596.42 822.93 635.44 813.54 675.04C795.82 750.09 786.06 828.01 801.45 904.39C815.88 976.04 852.28 1043.53 914.39 1084.4C972.17 1122.54 1043.24 1135.57 1111.53 1133.52C1196.87 1131.04 1280.02 1107.32 1362.4 1087.12L1626.65 1022.32L1753.36 991.24C1756.09 990.57 1755.38 986.25 1752.66 986.89L1491.57 1050.91C1406.64 1071.75 1321.94 1094.55 1236.35 1112.56C1160.16 1128.57 1080.49 1137.56 1004 1118.18C970.12 1109.61 937.41 1095.67 908.91 1075.22C878.09 1052.74 852.95 1023.33 835.54 989.37C758.73 842.13 817.36 675.48 858.72 527.56C878.41 457.08 896.66 380.28 871.03 308.72C859.97 277.78 841.01 248.82 814.09 229.47C789.53 212.14 759.88 203.52 729.87 205C664.83 207.55 608.78 248.02 574.31 301.34C555.08 331.2 541.63 364.45 531.56 398.35C521.29 432.99 511.14 470.52 511.92 506.88C512.6 537.84 524.64 570.85 552.25 587.62C576.92 602.6 606.13 597.53 627.95 580.02C675.47 541.88 681.55 473.22 664.41 418.49C647.4 364.21 607.51 316.7 555.87 292.46C490.13 261.65 417.99 280.07 350.45 293.48C286.49 306.2 205.08 315.52 153.68 265.43C112.61 225.43 103.27 151.78 141.97 107.13C181.05 61.98 264.39 66.12 298.12 115.9C338.57 175.55 289.09 253.78 231.8 279.22C174.51 304.67 101.96 293.47 54.65 252.22C5.43 209.26 -6.78 137.32 14.6 77.26C24.75 48.07 43.3 22.54 67.91 3.87C70.2 2.15 67.34 -1.19 65.1 0.42Z" fill="#FF4C0D" fill-opacity="1.000000" fill-rule="nonzero"/>
</svg>
