<svg width="1755.086182" height="1133.726807" viewBox="0 0 1755.09 1133.73" fill="none" xmlns="http://www.w3.org/2000/svg" xmlns:xlink="http://www.w3.org/1999/xlink">
	<desc>
			Created with Pixso.
	</desc>
	<defs/>
	<path id="Path" d="M1689.98 0.42C1738.48 36.7 1761.38 100.15 1753.59 159.46C1745.52 220.91 1702.86 269.74 1644.16 288.51C1587.5 306.59 1520.05 296.48 1477.42 252.87C1437.55 212.08 1419.82 139.72 1467.5 97.34C1507.77 61.56 1578.27 62.16 1615.01 102.66C1651.74 143.15 1648.87 208.08 1618.85 251.53C1580.97 306.34 1508 312.73 1447.42 305.16C1374 296.12 1297.93 264.89 1223.98 287.61C1165.67 305.52 1119.04 353.68 1098.03 410.44C1087.31 438.81 1083.84 469.39 1087.92 499.43C1092.66 532.16 1110.56 566.53 1139.91 583.54C1172.54 602.48 1209.09 587.5 1226.64 555.71C1245.9 520.76 1238.48 479.09 1230.24 442.09C1214.49 371.43 1187.5 295.9 1128.82 249.47C1076.84 208.43 999.07 192.31 942.5 233.87C878.36 280.98 868.83 367.91 880.56 440.77C886.94 480.3 898.35 518.93 909.4 557.35C920.63 596.42 932.14 635.44 941.54 675.04C959.26 750.09 969.02 828.01 953.63 904.39C939.2 976.04 902.8 1043.53 840.69 1084.4C782.9 1122.54 711.84 1135.57 643.55 1133.52C558.21 1131.04 475.06 1107.32 392.68 1087.12L128.43 1022.32L1.72 991.24C-1.01 990.57 -0.3 986.25 2.42 986.89L263.51 1050.91C348.44 1071.75 433.14 1094.55 518.73 1112.56C594.92 1128.57 674.59 1137.56 751.08 1118.18C784.95 1109.61 817.67 1095.67 846.16 1075.22C876.99 1052.74 902.12 1023.33 919.54 989.37C996.35 842.13 937.72 675.48 896.35 527.56C876.67 457.08 858.41 380.28 884.05 308.72C895.1 277.78 914.07 248.82 940.98 229.47C965.55 212.14 995.2 203.52 1025.21 205C1090.25 207.55 1146.3 248.02 1180.77 301.35C1200.01 331.2 1213.44 364.45 1223.52 398.35C1233.79 432.99 1243.93 470.52 1243.16 506.88C1242.48 537.84 1230.43 570.85 1202.82 587.62C1178.16 602.6 1148.94 597.53 1127.13 580.02C1079.62 541.88 1073.53 473.22 1090.67 418.49C1107.68 364.21 1147.57 316.7 1199.21 292.46C1264.94 261.65 1337.09 280.07 1404.63 293.48C1468.59 306.2 1550 315.52 1601.41 265.43C1642.47 225.43 1651.81 151.78 1613.11 107.13C1574.03 61.98 1490.69 66.12 1456.96 115.9C1416.51 175.55 1465.99 253.78 1523.28 279.22C1580.57 304.67 1653.12 293.47 1700.43 252.22C1749.65 209.26 1761.86 137.32 1740.48 77.26C1730.33 48.07 1711.79 22.54 1687.17 3.87C1684.88 2.15 1687.74 -1.19 1689.98 0.42Z" fill="#FF4C0D" fill-opacity="1.000000" fill-rule="nonzero"/>
</svg>
